<svg xmlns="http://www.w3.org/2000/svg" width="1494" height="448" viewBox="0 0 1494 448">
  <path fill="#222" d="M621,178 L636.416399,178 L636.416399,218.79638 L684.670418,178 L694.694534,178 L648.92926,216.714932 L707,270 L687.366559,270 L636.416399,244.023961 L636.416399,270 L621,270 L621,178 Z M713,178 L728.416399,178 L728.416399,218.79638 L776.670418,178 L786.694534,178 L740.92926,216.714932 L799,270 L779.366559,270 L728.416399,244.404157 L728.416399,270 L713,270 L713,178 Z M874,178 L874,183.966817 L840.728656,183.966817 L840.728656,270 L825.271344,270 L805.500392,183.966817 L792,183.966817 L792,178 L874,178 Z"/>
</svg>
